<svg viewBox="0 0 1000 700" xmlns="http://www.w3.org/2000/svg">
<polygon points="500,120 1120,420 500,720 -120,420" fill="#171d38"/><line x1="-16.666666666666742" y1="370" x2="-16.666666666666742" y2="470" stroke="#28315c" stroke-width="1.5" opacity="0.5"/><line x1="396.66666666666674" y1="170" x2="603.3333333333333" y2="170" stroke="#28315c" stroke-width="1.5" opacity="0.5"/><line x1="86.66666666666669" y1="320" x2="86.66666666666669" y2="520" stroke="#28315c" stroke-width="1.5" opacity="0.5"/><line x1="293.3333333333333" y1="220" x2="706.6666666666667" y2="220" stroke="#28315c" stroke-width="1.5" opacity="0.5"/><line x1="190" y1="270" x2="190" y2="570" stroke="#28315c" stroke-width="1.5" opacity="0.5"/><line x1="190" y1="270" x2="810" y2="270" stroke="#28315c" stroke-width="1.5" opacity="0.5"/><line x1="293.33333333333337" y1="220" x2="293.33333333333337" y2="620" stroke="#28315c" stroke-width="1.5" opacity="0.5"/><line x1="86.66666666666666" y1="320" x2="913.3333333333334" y2="320" stroke="#28315c" stroke-width="1.5" opacity="0.5"/><line x1="396.6666666666667" y1="170" x2="396.6666666666667" y2="670" stroke="#28315c" stroke-width="1.5" opacity="0.5"/><line x1="-16.66666666666667" y1="370" x2="1016.6666666666666" y2="370" stroke="#28315c" stroke-width="1.5" opacity="0.5"/><line x1="500" y1="120" x2="500" y2="720" stroke="#28315c" stroke-width="1.5" opacity="0.5"/><line x1="-120" y1="420" x2="1120" y2="420" stroke="#28315c" stroke-width="1.5" opacity="0.5"/><line x1="603.3333333333334" y1="170" x2="603.3333333333334" y2="670" stroke="#28315c" stroke-width="1.5" opacity="0.5"/><line x1="-16.66666666666667" y1="470" x2="1016.6666666666666" y2="470" stroke="#28315c" stroke-width="1.5" opacity="0.5"/><line x1="706.6666666666666" y1="220" x2="706.6666666666666" y2="620" stroke="#28315c" stroke-width="1.5" opacity="0.5"/><line x1="86.66666666666666" y1="520" x2="913.3333333333334" y2="520" stroke="#28315c" stroke-width="1.5" opacity="0.5"/><line x1="810" y1="270" x2="810" y2="570" stroke="#28315c" stroke-width="1.5" opacity="0.5"/><line x1="190" y1="570" x2="810" y2="570" stroke="#28315c" stroke-width="1.5" opacity="0.5"/><line x1="913.3333333333333" y1="320" x2="913.3333333333333" y2="520" stroke="#28315c" stroke-width="1.5" opacity="0.5"/><line x1="293.3333333333333" y1="620" x2="706.6666666666667" y2="620" stroke="#28315c" stroke-width="1.5" opacity="0.5"/><line x1="1016.6666666666667" y1="370" x2="1016.6666666666667" y2="470" stroke="#28315c" stroke-width="1.5" opacity="0.5"/><line x1="396.66666666666674" y1="670" x2="603.3333333333333" y2="670" stroke="#28315c" stroke-width="1.5" opacity="0.5"/>
<polygon points="50.10,294.00 197.32,379.00 197.32,405.00 50.10,320.00" fill="#2c3460" /><polygon points="197.32,379.00 309.90,314.00 309.90,340.00 197.32,405.00" fill="#222a49" /><polygon points="162.68,229.00 309.90,314.00 197.32,379.00 50.10,294.00" fill="#3b447a" />
<polygon points="256.08,251.00 385.98,326.00 385.98,360.00 256.08,285.00" fill="#2c3460" /><polygon points="385.98,326.00 463.92,281.00 463.92,315.00 385.98,360.00" fill="#222a49" /><polygon points="334.02,206.00 463.92,281.00 385.98,326.00 256.08,251.00" fill="#3b447a" /><polygon points="398.40,179.00 502.32,239.00 502.32,285.00 398.40,225.00" fill="#2f3860" /><polygon points="502.32,239.00 571.60,199.00 571.60,245.00 502.32,285.00" fill="#232a49" /><polygon points="467.68,139.00 571.60,199.00 502.32,239.00 398.40,179.00" fill="#414d78" />
<polygon points="415.05,137.50 484.33,177.50 484.33,247.50 415.05,207.50" fill="#2f3860" /><polygon points="484.33,177.50 544.95,142.50 544.95,212.50 484.33,247.50" fill="#232a49" /><polygon points="475.67,102.50 544.95,142.50 484.33,177.50 415.05,137.50" fill="#414d78" />
<polygon points="447.83,212.50 707.63,362.50 707.63,482.50 447.83,332.50" fill="#343d64" /><polygon points="707.63,362.50 872.17,267.50 872.17,387.50 707.63,482.50" fill="#272e4d" /><polygon points="612.37,117.50 872.17,267.50 707.63,362.50 447.83,212.50" fill="#4a5680" /><polygon points="492.78,255.00 674.64,360.00 674.64,415.00 492.78,310.00" fill="#2f3860" /><polygon points="674.64,360.00 787.22,295.00 787.22,350.00 674.64,415.00" fill="#232a49" /><polygon points="605.36,190.00 787.22,295.00 674.64,360.00 492.78,255.00" fill="#414d78" /><line x1="624.41" y1="96.00" x2="537.81" y2="146.00" stroke="#57638c" stroke-width="2.5" opacity="0.55"/><line x1="653.86" y1="113.00" x2="567.26" y2="163.00" stroke="#57638c" stroke-width="2.5" opacity="0.55"/><line x1="683.30" y1="130.00" x2="596.70" y2="180.00" stroke="#57638c" stroke-width="2.5" opacity="0.55"/><line x1="712.74" y1="147.00" x2="626.14" y2="197.00" stroke="#57638c" stroke-width="2.5" opacity="0.55"/><line x1="742.19" y1="164.00" x2="655.59" y2="214.00" stroke="#57638c" stroke-width="2.5" opacity="0.55"/>
</svg>
