<svg viewBox="0 0 1000 700" xmlns="http://www.w3.org/2000/svg">
<ellipse cx="175" cy="250" rx="52" ry="30" fill="#12172c" opacity="0.55"/><ellipse cx="175" cy="250" rx="30" ry="17" fill="#93a8d2"/><ellipse cx="825" cy="250" rx="52" ry="30" fill="#12172c" opacity="0.55"/><ellipse cx="825" cy="250" rx="30" ry="17" fill="#93a8d2"/><ellipse cx="205" cy="585" rx="52" ry="30" fill="#12172c" opacity="0.55"/><ellipse cx="205" cy="585" rx="30" ry="17" fill="#93a8d2"/><ellipse cx="795" cy="585" rx="52" ry="30" fill="#12172c" opacity="0.55"/><ellipse cx="795" cy="585" rx="30" ry="17" fill="#93a8d2"/><path d="M 150 250 C 150 120 250 60 400 55 L 600 55 C 750 60 850 120 850 250 L 850 560 C 850 630 780 665 700 665 L 300 665 C 220 665 150 630 150 560 Z" fill="#c4d3ec" stroke="#93a8d2" stroke-width="3"/><path d="M 200 150 C 260 95 360 82 500 80 C 640 82 740 95 800 150" fill="none" stroke="#FFFFFF" stroke-width="2.5" opacity="0.12"/><path d="M 330 70 L 670 70 L 620 132 L 380 132 Z" fill="#bcd0ec" opacity="0.6"/><line x1="500" y1="72" x2="500" y2="130" stroke="#c4d3ec" stroke-width="2" opacity="0.5"/><ellipse cx="300" cy="630" rx="34" ry="17" fill="#F0DFA6" opacity="0.85"/><ellipse cx="300" cy="628" rx="26" ry="12" fill="#FFFFFF" opacity="0.5"/><ellipse cx="700" cy="630" rx="34" ry="17" fill="#F0DFA6" opacity="0.85"/><ellipse cx="700" cy="628" rx="26" ry="12" fill="#FFFFFF" opacity="0.5"/><rect x="420" y="616" width="160" height="30" rx="6" fill="#8ea1c6"/><line x1="446" y1="618" x2="446" y2="644" stroke="#a9bce0" stroke-width="2"/><line x1="472" y1="618" x2="472" y2="644" stroke="#a9bce0" stroke-width="2"/><line x1="498" y1="618" x2="498" y2="644" stroke="#a9bce0" stroke-width="2"/><line x1="524" y1="618" x2="524" y2="644" stroke="#a9bce0" stroke-width="2"/><line x1="550" y1="618" x2="550" y2="644" stroke="#a9bce0" stroke-width="2"/>
<rect x="195" y="150" width="610" height="415" rx="34" fill="#e9eef8" stroke="#93a8d2" stroke-width="4"/><line x1="235" y1="158" x2="235" y2="557" stroke="#c6d4ea" stroke-width="1" opacity="0.4"/><line x1="295" y1="158" x2="295" y2="557" stroke="#c6d4ea" stroke-width="1" opacity="0.4"/><line x1="355" y1="158" x2="355" y2="557" stroke="#c6d4ea" stroke-width="1" opacity="0.4"/><line x1="415" y1="158" x2="415" y2="557" stroke="#c6d4ea" stroke-width="1" opacity="0.4"/><line x1="475" y1="158" x2="475" y2="557" stroke="#c6d4ea" stroke-width="1" opacity="0.4"/><line x1="535" y1="158" x2="535" y2="557" stroke="#c6d4ea" stroke-width="1" opacity="0.4"/><line x1="595" y1="158" x2="595" y2="557" stroke="#c6d4ea" stroke-width="1" opacity="0.4"/><line x1="655" y1="158" x2="655" y2="557" stroke="#c6d4ea" stroke-width="1" opacity="0.4"/><line x1="715" y1="158" x2="715" y2="557" stroke="#c6d4ea" stroke-width="1" opacity="0.4"/><line x1="775" y1="158" x2="775" y2="557" stroke="#c6d4ea" stroke-width="1" opacity="0.4"/><line x1="203" y1="190" x2="797" y2="190" stroke="#c6d4ea" stroke-width="1" opacity="0.4"/><line x1="203" y1="250" x2="797" y2="250" stroke="#c6d4ea" stroke-width="1" opacity="0.4"/><line x1="203" y1="310" x2="797" y2="310" stroke="#c6d4ea" stroke-width="1" opacity="0.4"/><line x1="203" y1="370" x2="797" y2="370" stroke="#c6d4ea" stroke-width="1" opacity="0.4"/><line x1="203" y1="430" x2="797" y2="430" stroke="#c6d4ea" stroke-width="1" opacity="0.4"/><line x1="203" y1="490" x2="797" y2="490" stroke="#c6d4ea" stroke-width="1" opacity="0.4"/><line x1="203" y1="550" x2="797" y2="550" stroke="#c6d4ea" stroke-width="1" opacity="0.4"/>
<polygon points="325.10,-5.00 550.26,125.00 550.26,275.00 325.10,145.00" fill="#b4c5e2" /><polygon points="550.26,125.00 584.90,105.00 584.90,255.00 550.26,275.00" fill="#a0b3d8" /><polygon points="359.74,-25.00 584.90,105.00 550.26,125.00 325.10,-5.00" fill="#cfdaef" /><polygon points="325.73,198.50 420.99,253.50 420.99,297.50 325.73,242.50" fill="#afc1e2" /><polygon points="420.99,253.50 490.27,213.50 490.27,257.50 420.99,297.50" fill="#9bafd6" /><polygon points="395.01,158.50 490.27,213.50 420.99,253.50 325.73,198.50" fill="#c9d6ed" />
<polygon points="40.77,314.00 192.32,401.50 192.32,427.50 40.77,340.00" fill="#afc1e2" /><polygon points="192.32,401.50 309.23,334.00 309.23,360.00 192.32,427.50" fill="#9bafd6" /><polygon points="157.68,246.50 309.23,334.00 192.32,401.50 40.77,314.00" fill="#c9d6ed" />
<polygon points="207.57,257.25 320.15,322.25 320.15,356.25 207.57,291.25" fill="#afc1e2" /><polygon points="320.15,322.25 402.43,274.75 402.43,308.75 320.15,356.25" fill="#9bafd6" /><polygon points="289.85,209.75 402.43,274.75 320.15,322.25 207.57,257.25" fill="#c9d6ed" />
<polygon points="480.51,237.50 757.63,397.50 757.63,532.50 480.51,372.50" fill="#bacae6" /><polygon points="757.63,397.50 939.49,292.50 939.49,427.50 757.63,532.50" fill="#a6b8dc" /><polygon points="662.37,132.50 939.49,292.50 757.63,397.50 480.51,237.50" fill="#d4dff1" /><polygon points="661.08,395.00 773.66,460.00 773.66,530.00 661.08,465.00" fill="#a6b8dc" /><polygon points="773.66,460.00 868.92,405.00 868.92,475.00 773.66,530.00" fill="#a6b8dc" /><polygon points="756.34,340.00 868.92,405.00 773.66,460.00 661.08,395.00" fill="#bacae6" /><polygon points="522.63,283.75 721.80,398.75 721.80,458.75 522.63,343.75" fill="#b4c5e2" /><polygon points="721.80,398.75 847.38,326.25 847.38,386.25 721.80,458.75" fill="#a0b3d8" /><polygon points="648.20,211.25 847.38,326.25 721.80,398.75 522.63,283.75" fill="#cfdaef" /><line x1="666.81" y1="104.50" x2="571.55" y2="159.50" stroke="#8397bd" stroke-width="2.5" opacity="0.55"/><line x1="699.72" y1="123.50" x2="604.46" y2="178.50" stroke="#8397bd" stroke-width="2.5" opacity="0.55"/><line x1="732.63" y1="142.50" x2="637.37" y2="197.50" stroke="#8397bd" stroke-width="2.5" opacity="0.55"/><line x1="765.54" y1="161.50" x2="670.28" y2="216.50" stroke="#8397bd" stroke-width="2.5" opacity="0.55"/><line x1="798.45" y1="180.50" x2="703.19" y2="235.50" stroke="#8397bd" stroke-width="2.5" opacity="0.55"/>

    <rect x="26" y="26" width="948" height="648" rx="26" fill="none" stroke="#3869B1" stroke-width="2" opacity="0.3" stroke-dasharray="2 10"/>
    <path d="M 60 26 L 26 26 L 26 60" fill="none" stroke="#3869B1" stroke-width="3" opacity="0.44999999999999996" stroke-linecap="round"/><path d="M 940 26 L 974 26 L 974 60" fill="none" stroke="#3869B1" stroke-width="3" opacity="0.44999999999999996" stroke-linecap="round"/><path d="M 60 674 L 26 674 L 26 640" fill="none" stroke="#3869B1" stroke-width="3" opacity="0.44999999999999996" stroke-linecap="round"/><path d="M 940 674 L 974 674 L 974 640" fill="none" stroke="#3869B1" stroke-width="3" opacity="0.44999999999999996" stroke-linecap="round"/>
</svg>
