<svg viewBox="0 0 1000 700" xmlns="http://www.w3.org/2000/svg">

    <rect x="26" y="26" width="948" height="648" rx="26" fill="none" stroke="#3869B1" stroke-width="2" opacity="0.3" stroke-dasharray="2 10"/>
    <path d="M 60 26 L 26 26 L 26 60" fill="none" stroke="#3869B1" stroke-width="3" opacity="0.44999999999999996" stroke-linecap="round"/><path d="M 940 26 L 974 26 L 974 60" fill="none" stroke="#3869B1" stroke-width="3" opacity="0.44999999999999996" stroke-linecap="round"/><path d="M 60 674 L 26 674 L 26 640" fill="none" stroke="#3869B1" stroke-width="3" opacity="0.44999999999999996" stroke-linecap="round"/><path d="M 940 674 L 974 674 L 974 640" fill="none" stroke="#3869B1" stroke-width="3" opacity="0.44999999999999996" stroke-linecap="round"/>
<polygon points="500,120 1120,420 500,720 -120,420" fill="#e9eef8"/><line x1="-16.666666666666742" y1="370" x2="-16.666666666666742" y2="470" stroke="#c6d4ea" stroke-width="1.5" opacity="0.5"/><line x1="396.66666666666674" y1="170" x2="603.3333333333333" y2="170" stroke="#c6d4ea" stroke-width="1.5" opacity="0.5"/><line x1="86.66666666666669" y1="320" x2="86.66666666666669" y2="520" stroke="#c6d4ea" stroke-width="1.5" opacity="0.5"/><line x1="293.3333333333333" y1="220" x2="706.6666666666667" y2="220" stroke="#c6d4ea" stroke-width="1.5" opacity="0.5"/><line x1="190" y1="270" x2="190" y2="570" stroke="#c6d4ea" stroke-width="1.5" opacity="0.5"/><line x1="190" y1="270" x2="810" y2="270" stroke="#c6d4ea" stroke-width="1.5" opacity="0.5"/><line x1="293.33333333333337" y1="220" x2="293.33333333333337" y2="620" stroke="#c6d4ea" stroke-width="1.5" opacity="0.5"/><line x1="86.66666666666666" y1="320" x2="913.3333333333334" y2="320" stroke="#c6d4ea" stroke-width="1.5" opacity="0.5"/><line x1="396.6666666666667" y1="170" x2="396.6666666666667" y2="670" stroke="#c6d4ea" stroke-width="1.5" opacity="0.5"/><line x1="-16.66666666666667" y1="370" x2="1016.6666666666666" y2="370" stroke="#c6d4ea" stroke-width="1.5" opacity="0.5"/><line x1="500" y1="120" x2="500" y2="720" stroke="#c6d4ea" stroke-width="1.5" opacity="0.5"/><line x1="-120" y1="420" x2="1120" y2="420" stroke="#c6d4ea" stroke-width="1.5" opacity="0.5"/><line x1="603.3333333333334" y1="170" x2="603.3333333333334" y2="670" stroke="#c6d4ea" stroke-width="1.5" opacity="0.5"/><line x1="-16.66666666666667" y1="470" x2="1016.6666666666666" y2="470" stroke="#c6d4ea" stroke-width="1.5" opacity="0.5"/><line x1="706.6666666666666" y1="220" x2="706.6666666666666" y2="620" stroke="#c6d4ea" stroke-width="1.5" opacity="0.5"/><line x1="86.66666666666666" y1="520" x2="913.3333333333334" y2="520" stroke="#c6d4ea" stroke-width="1.5" opacity="0.5"/><line x1="810" y1="270" x2="810" y2="570" stroke="#c6d4ea" stroke-width="1.5" opacity="0.5"/><line x1="190" y1="570" x2="810" y2="570" stroke="#c6d4ea" stroke-width="1.5" opacity="0.5"/><line x1="913.3333333333333" y1="320" x2="913.3333333333333" y2="520" stroke="#c6d4ea" stroke-width="1.5" opacity="0.5"/><line x1="293.3333333333333" y1="620" x2="706.6666666666667" y2="620" stroke="#c6d4ea" stroke-width="1.5" opacity="0.5"/><line x1="1016.6666666666667" y1="370" x2="1016.6666666666667" y2="470" stroke="#c6d4ea" stroke-width="1.5" opacity="0.5"/><line x1="396.66666666666674" y1="670" x2="603.3333333333333" y2="670" stroke="#c6d4ea" stroke-width="1.5" opacity="0.5"/>
<polygon points="325.10,-5.00 550.26,125.00 550.26,275.00 325.10,145.00" fill="#b4c5e2" /><polygon points="550.26,125.00 584.90,105.00 584.90,255.00 550.26,275.00" fill="#a0b3d8" /><polygon points="359.74,-25.00 584.90,105.00 550.26,125.00 325.10,-5.00" fill="#cfdaef" /><polygon points="325.73,198.50 420.99,253.50 420.99,297.50 325.73,242.50" fill="#afc1e2" /><polygon points="420.99,253.50 490.27,213.50 490.27,257.50 420.99,297.50" fill="#9bafd6" /><polygon points="395.01,158.50 490.27,213.50 420.99,253.50 325.73,198.50" fill="#c9d6ed" />
<polygon points="40.77,314.00 192.32,401.50 192.32,427.50 40.77,340.00" fill="#afc1e2" /><polygon points="192.32,401.50 309.23,334.00 309.23,360.00 192.32,427.50" fill="#9bafd6" /><polygon points="157.68,246.50 309.23,334.00 192.32,401.50 40.77,314.00" fill="#c9d6ed" />
<polygon points="207.57,257.25 320.15,322.25 320.15,356.25 207.57,291.25" fill="#afc1e2" /><polygon points="320.15,322.25 402.43,274.75 402.43,308.75 320.15,356.25" fill="#9bafd6" /><polygon points="289.85,209.75 402.43,274.75 320.15,322.25 207.57,257.25" fill="#c9d6ed" />
<polygon points="480.51,237.50 757.63,397.50 757.63,532.50 480.51,372.50" fill="#bacae6" /><polygon points="757.63,397.50 939.49,292.50 939.49,427.50 757.63,532.50" fill="#a6b8dc" /><polygon points="662.37,132.50 939.49,292.50 757.63,397.50 480.51,237.50" fill="#d4dff1" /><polygon points="661.08,395.00 773.66,460.00 773.66,530.00 661.08,465.00" fill="#a6b8dc" /><polygon points="773.66,460.00 868.92,405.00 868.92,475.00 773.66,530.00" fill="#a6b8dc" /><polygon points="756.34,340.00 868.92,405.00 773.66,460.00 661.08,395.00" fill="#bacae6" /><polygon points="522.63,283.75 721.80,398.75 721.80,458.75 522.63,343.75" fill="#b4c5e2" /><polygon points="721.80,398.75 847.38,326.25 847.38,386.25 721.80,458.75" fill="#a0b3d8" /><polygon points="648.20,211.25 847.38,326.25 721.80,398.75 522.63,283.75" fill="#cfdaef" /><line x1="666.81" y1="104.50" x2="571.55" y2="159.50" stroke="#8397bd" stroke-width="2.5" opacity="0.55"/><line x1="699.72" y1="123.50" x2="604.46" y2="178.50" stroke="#8397bd" stroke-width="2.5" opacity="0.55"/><line x1="732.63" y1="142.50" x2="637.37" y2="197.50" stroke="#8397bd" stroke-width="2.5" opacity="0.55"/><line x1="765.54" y1="161.50" x2="670.28" y2="216.50" stroke="#8397bd" stroke-width="2.5" opacity="0.55"/><line x1="798.45" y1="180.50" x2="703.19" y2="235.50" stroke="#8397bd" stroke-width="2.5" opacity="0.55"/>
</svg>
