<svg viewBox="0 0 200 200" xmlns="http://www.w3.org/2000/svg">
    <polygon points="31.586,63.5 114.722,111.5 114.722,157.5 31.586,109.5" fill="#1E4D96" />
    <polygon points="114.722,111.5 168.414,80.5 168.414,126.5 114.722,157.5" fill="#21284F" />
    <polygon points="85.278,32.5 168.414,80.5 114.722,111.5 31.586,63.5" fill="#3869B1" />
    
    <ellipse cx="75.752" cy="66" rx="8" ry="4" fill="#98BAE3" stroke="#6590CB" stroke-width="1.5" /><ellipse cx="93.072" cy="76" rx="8" ry="4" fill="#98BAE3" stroke="#6590CB" stroke-width="1.5" /><ellipse cx="110.392" cy="86" rx="8" ry="4" fill="#98BAE3" stroke="#6590CB" stroke-width="1.5" />
    <g transform="translate(75.752 104) skewY(26)">
      <rect x="-26" y="-9" width="52" height="18" rx="3" fill="#CFE0F4" />
      <text x="0" y="5" font-family="Roboto Mono, monospace" font-size="13" font-weight="700" fill="#1E4D96" text-anchor="middle">12V</text>
    </g>
    
    <ellipse cx="110.392" cy="102" rx="11" ry="5" fill="#454B5C" />
    <rect x="101.392" y="86" width="18" height="16" rx="3" fill="#2B2F3A" />
    <ellipse cx="110.392" cy="86" rx="9" ry="4.5" fill="#FFFFFF" opacity="0.35" />
    
    <ellipse cx="89.608" cy="62" rx="11" ry="5" fill="#8E2A20" />
    <rect x="80.608" y="46" width="18" height="16" rx="3" fill="#C0392B" />
    <ellipse cx="89.608" cy="46" rx="9" ry="4.5" fill="#FFFFFF" opacity="0.35" />
    <text x="89.608" y="40" font-family="Roboto, sans-serif" font-size="15" font-weight="800" fill="#C0392B" text-anchor="middle">+</text>
    <text x="110.392" y="80" font-family="Roboto, sans-serif" font-size="17" font-weight="800" fill="#2B2F3A" text-anchor="middle">−</text>
</svg>
