<svg xmlns="http://www.w3.org/2000/svg" viewBox="0 0 968.38 275.79"><defs><style>.cls-1{fill:#fff;}</style></defs><title>bLANCO COMPLETO</title><g id="Capa_2" data-name="Capa 2"><g id="Capa_1-2" data-name="Capa 1"><path class="cls-1" d="M565.24,221.61c0,5.64,4.15,10.38,9.34,10.38h94.5v20.77h-94.5c-17.8,0-32.19-13.94-32.19-31.15V180.08c0-17.21,14.39-31.16,32.19-31.16h94.5v20.77h-94.5c-5.19,0-9.34,4.6-9.34,10.39v10.38h93.45v20.77H565.24Z"/><path class="cls-1" d="M487.48,148.92H393v20.77h0V232h0v20.76h94.46c17.8,0,32.19-13.94,32.19-31.15V180.08C519.67,162.87,505.28,148.92,487.48,148.92Zm9.35,72.69c0,5.79-4.16,10.39-9.35,10.39H413.62V169.69h73.86c5.19,0,9.35,4.75,9.35,10.39Z"/><path class="cls-1" d="M945.54,148.92h22.84v20.77c0,22.85-19.13,41.54-42.57,41.54h-9.35v41.53H893.62V211.23h-9.35c-23.44,0-42.57-18.69-42.57-41.54V148.92h22.84v20.77c0,11.42,8.9,20.77,19.73,20.77h41.54c10.83,0,19.73-9.35,19.73-20.77Z"/><path class="cls-1" d="M818.81,183.11v69.46h-25.4v-70.1a11.46,11.46,0,0,0,.11-1.56,11.2,11.2,0,0,0-.11-1.55,11.91,11.91,0,0,0-9-9.42l-.59-.15a14.36,14.36,0,0,0-6,0,12.21,12.21,0,0,0-9.33,8.23,3.17,3.17,0,0,0-.12.44,9.79,9.79,0,0,0-.19,1c0,.14,0,.28-.05.43a.19.19,0,0,0,0,.08c0,.15,0,.31,0,.46s0,.34,0,.51v71.66H742.6V181.32c0-6.29-5.68-11.38-12.7-11.38s-12.7,5.09-12.7,11.38v71.25H691.8V183.11a31,31,0,0,1,2.94-13.17c4.14-8.86,12.31-15.82,22.46-19a41,41,0,0,1,7.5-1.62h10.41a40.69,40.69,0,0,1,7.49,1.62,39.12,39.12,0,0,1,12.7,6.76A39.27,39.27,0,0,1,768,150.9a40.69,40.69,0,0,1,7.49-1.62h10.41a41,41,0,0,1,7.5,1.62c10.15,3.22,18.32,10.18,22.46,19A31,31,0,0,1,818.81,183.11Z"/><path class="cls-1" d="M565.3,97.24c0,5.64,4.15,10.38,9.34,10.38h94.5v20.77h-94.5c-17.8,0-32.19-13.94-32.19-31.15V55.7c0-17.21,14.39-31.15,32.19-31.15h94.5V45.32h-94.5c-5.19,0-9.34,4.6-9.34,10.38V66.09h93.46V86.86H565.3Z"/><path class="cls-1" d="M734.62,128.39c-23.44,0-42.57-18.69-42.57-41.53V66.09c0-23,19.13-41.54,42.57-41.54h84.12V45.32H734.62c-10.83,0-19.73,9.34-19.73,20.77V86.86c0,11.42,8.9,20.76,19.73,20.76h84.12v20.77Z"/><path class="cls-1" d="M925.47,24.55c23.44,0,42.58,18.54,42.58,41.54v62.3H945.2V97.24h-81v31.15H841.36V66.09c0-23,19-41.54,42.57-41.54ZM864.2,76.47h81V66.09c0-11.43-8.9-20.77-19.73-20.77H883.93c-11,0-19.73,9.34-19.73,20.77Z"/><path class="cls-1" d="M519.7,58.74V128.2H494.36V58.09a9.92,9.92,0,0,0,.12-1.55,10.05,10.05,0,0,0-.12-1.56,11.91,11.91,0,0,0-9-9.42l-.59-.14a14.27,14.27,0,0,0-6,0,12.19,12.19,0,0,0-9.31,8.22,4.16,4.16,0,0,0-.12.44c-.08.32-.14.65-.19,1,0,.14,0,.28-.05.42s0,.06,0,.09,0,.31,0,.46,0,.34,0,.51V128.2H443.69V57c0-6.29-5.67-11.39-12.67-11.39S418.35,50.66,418.35,57V128.2H393V58.74A31.1,31.1,0,0,1,396,45.56c4.12-8.85,12.28-15.81,22.4-19a40.76,40.76,0,0,1,7.48-1.62h10.38a40.58,40.58,0,0,1,7.48,1.62,39,39,0,0,1,12.67,6.76A38.88,38.88,0,0,1,469,26.53a40.66,40.66,0,0,1,7.47-1.62h10.39a40.66,40.66,0,0,1,7.47,1.62c10.13,3.22,18.28,10.18,22.41,19A31.25,31.25,0,0,1,519.7,58.74Z"/><path class="cls-1" d="M334.18,275.79H35a35,35,0,0,1-35-35V35A35,35,0,0,1,35,0H334.18a35,35,0,0,1,35,35V240.79A35,35,0,0,1,334.18,275.79ZM35,22A13,13,0,0,0,22,35V240.79a13,13,0,0,0,13,13H334.18a13,13,0,0,0,13-13V35a13,13,0,0,0-13-13Z"/><polygon class="cls-1" points="105.76 172.89 78.79 212.29 78.69 212.29 105.76 172.89"/><polygon class="cls-1" points="129.09 63.5 101.19 104.11 84.89 127.82 101.16 104.11 129.03 63.5 129.09 63.5"/><polygon class="cls-1" points="104.34 63.5 79.12 98.61 75.17 104.11 43.03 104.11 43.03 63.5 104.34 63.5"/><polygon class="cls-1" points="169.62 63.5 169.62 79.6 152.84 104.11 106.59 171.69 106.58 171.69 105.76 172.89 78.69 212.29 43.03 212.29 43.03 188.82 54.78 171.69 84.89 127.82 101.19 104.11 129.09 63.5 169.62 63.5"/><path class="cls-1" d="M169.62,171.69v40.6s-43.22-.35-66-.51l24.74-34.84,3.73-5.25Z"/><rect class="cls-1" x="187.81" y="63.5" width="40.61" height="148.79"/><path class="cls-1" d="M299.87,160.36c-1.78,1-3.62,1.82-3.62,1.82a49.65,49.65,0,0,1-6.78,2.49l35.72,47.62H274.4l-25.29-33.48v-54.4h25.38a10.19,10.19,0,0,0,10.09-8.79,9.14,9.14,0,0,0,.1-1.4v-.09a9.14,9.14,0,0,0-.1-1.4,10.2,10.2,0,0,0-10.09-8.79H249.11V63.5l28.58.09a51.29,51.29,0,0,1,25.17,8c16.83,10.86,21.19,28.23,22.07,32.15a52.68,52.68,0,0,1,.17,21.8,50.91,50.91,0,0,1-9.53,21.33A57.45,57.45,0,0,1,299.87,160.36Z"/><path class="cls-1" d="M284.58,112.73a9.14,9.14,0,0,1,.1,1.4v.09a9.14,9.14,0,0,1-.1,1.4Z"/></g></g></svg>