<svg id="Capa_1" data-name="Capa 1" xmlns="http://www.w3.org/2000/svg" viewBox="0 0 1080 1080"><defs><style>.cls-1{fill:#3869b1;}.cls-2{fill:#fff;}</style></defs><title>Mesa de trabajo 2</title><rect class="cls-1" x="57.28" y="187.14" width="965.45" height="705.72" rx="66.74"/><polygon class="cls-2" points="320.78 637.31 245.78 746.87 245.51 746.87 320.78 637.31"/><polygon class="cls-2" points="385.68 333.13 308.07 446.05 262.75 511.98 307.99 446.05 385.49 333.13 385.68 333.13"/><polygon class="cls-2" points="316.83 333.13 246.7 430.76 235.72 446.05 146.34 446.05 146.34 333.13 316.83 333.13"/><polygon class="cls-2" points="498.36 333.13 498.36 377.9 451.7 446.05 323.09 633.98 323.06 633.98 320.78 637.31 245.51 746.87 146.34 746.87 146.34 681.61 179.02 633.98 262.75 511.98 308.07 446.05 385.68 333.13 498.36 333.13"/><path class="cls-2" d="M498.36,634V746.87s-120.19-1-183.53-1.41l68.79-96.89L394,634Z"/><rect class="cls-2" x="548.94" y="333.13" width="112.93" height="413.75"/><path class="cls-2" d="M860.55,602.47c-4.95,2.78-10.07,5.06-10.07,5.06a137.22,137.22,0,0,1-18.85,6.92L931,746.87H789.72l-70.32-93.1V502.5H790A28.32,28.32,0,0,0,818,478.06a25.36,25.36,0,0,0,.28-3.89v-.25A25.4,25.4,0,0,0,818,470,28.36,28.36,0,0,0,790,445.58H719.4V333.13l79.47.25a142.56,142.56,0,0,1,70,22.24c46.8,30.2,58.93,78.5,61.38,89.4a146.55,146.55,0,0,1,.47,60.62A141.65,141.65,0,0,1,904.21,565,159.9,159.9,0,0,1,860.55,602.47Z"/><path class="cls-2" d="M818,470a25.4,25.4,0,0,1,.28,3.9v.25a25.36,25.36,0,0,1-.28,3.89Z"/></svg>