<svg xmlns="http://www.w3.org/2000/svg" viewBox="0 0 957.38 253.79"><defs><style>.cls-1{fill:#21284f;}.cls-2{fill:#fff;}</style></defs><title>oSCURO</title><g id="Capa_2" data-name="Capa 2"><g id="Capa_1-2" data-name="Capa 1"><path class="cls-1" d="M554.24,210.61c0,5.64,4.15,10.38,9.34,10.38h94.5v20.77h-94.5c-17.8,0-32.19-13.94-32.19-31.15V169.08c0-17.21,14.39-31.16,32.19-31.16h94.5v20.77h-94.5c-5.19,0-9.34,4.6-9.34,10.39v10.38h93.45v20.77H554.24Z"/><path class="cls-1" d="M476.48,137.92H382v20.77h0V221h0v20.76h94.46c17.8,0,32.19-13.94,32.19-31.15V169.07C508.67,151.87,494.28,137.92,476.48,137.92Zm9.35,72.69c0,5.79-4.15,10.39-9.35,10.39H402.62V158.69h73.86c5.2,0,9.35,4.75,9.35,10.38Z"/><path class="cls-1" d="M934.54,137.92h22.84v20.77c0,22.85-19.13,41.54-42.57,41.54h-9.35v41.53H882.62V200.23h-9.35c-23.44,0-42.57-18.69-42.57-41.54V137.92h22.84v20.77c0,11.42,8.9,20.77,19.73,20.77h41.54c10.83,0,19.73-9.35,19.73-20.77Z"/><path class="cls-1" d="M807.81,172.11v69.46h-25.4v-70.1a11.46,11.46,0,0,0,.11-1.56,11.2,11.2,0,0,0-.11-1.55,11.91,11.91,0,0,0-9-9.42c-.19-.06-.39-.1-.59-.15a14.36,14.36,0,0,0-6,0,12.23,12.23,0,0,0-9.33,8.23,3.17,3.17,0,0,0-.12.44,9.79,9.79,0,0,0-.19,1c0,.14,0,.28-.05.43a.19.19,0,0,0,0,.08c0,.15,0,.31,0,.46s0,.34,0,.51v71.66H731.6V170.32c0-6.29-5.68-11.38-12.7-11.38s-12.7,5.09-12.7,11.38v71.25H680.8V172.11a31,31,0,0,1,2.94-13.17c4.14-8.86,12.31-15.82,22.46-19a41,41,0,0,1,7.5-1.62h10.41a40.69,40.69,0,0,1,7.49,1.62,39.12,39.12,0,0,1,12.7,6.76A39.27,39.27,0,0,1,757,139.9a40.69,40.69,0,0,1,7.49-1.62h10.41a41,41,0,0,1,7.5,1.62c10.15,3.22,18.32,10.18,22.46,19A31,31,0,0,1,807.81,172.11Z"/><path class="cls-1" d="M554.3,86.24c0,5.64,4.15,10.38,9.34,10.38h94.5v20.77h-94.5c-17.8,0-32.19-13.94-32.19-31.15V44.7c0-17.21,14.39-31.15,32.19-31.15h94.5V34.32h-94.5c-5.19,0-9.34,4.6-9.34,10.38V55.09h93.46V75.85H554.3Z"/><path class="cls-1" d="M723.62,117.39c-23.44,0-42.57-18.69-42.57-41.54V55.09c0-23,19.13-41.54,42.57-41.54h84.12V34.32H723.62c-10.83,0-19.73,9.34-19.73,20.77V75.85c0,11.43,8.9,20.77,19.73,20.77h84.12v20.77Z"/><path class="cls-1" d="M914.47,13.55c23.44,0,42.58,18.54,42.58,41.54v62.3H934.2V86.24h-81v31.15H830.36V55.09c0-23,19-41.54,42.57-41.54ZM853.2,65.47h81V55.09c0-11.43-8.9-20.77-19.73-20.77H872.93c-11,0-19.73,9.34-19.73,20.77Z"/><path class="cls-1" d="M508.7,47.74V117.2H483.36V47.09a10.14,10.14,0,0,0,0-3.11,11.91,11.91,0,0,0-9-9.42l-.59-.14a14.27,14.27,0,0,0-6,0,12.19,12.19,0,0,0-9.31,8.22,4.16,4.16,0,0,0-.12.44c-.08.32-.14.65-.19,1,0,.14,0,.28-.05.42s0,.06,0,.09,0,.31,0,.46,0,.33,0,.51V117.2H432.69V46c0-6.29-5.67-11.39-12.67-11.39S407.35,39.66,407.35,46V117.2H382V47.74A31.1,31.1,0,0,1,385,34.56c4.12-8.85,12.28-15.81,22.4-19a40.76,40.76,0,0,1,7.48-1.62h10.38a40.58,40.58,0,0,1,7.48,1.62,39,39,0,0,1,12.67,6.76A38.88,38.88,0,0,1,458,15.53a40.66,40.66,0,0,1,7.47-1.62h10.39a40.66,40.66,0,0,1,7.47,1.62c10.13,3.22,18.28,10.18,22.41,19A31.25,31.25,0,0,1,508.7,47.74Z"/><path class="cls-1" d="M347.19,24V229.79a24,24,0,0,1-24,24H24a24,24,0,0,1-24-24V24A24,24,0,0,1,24,0H323.18A24,24,0,0,1,347.19,24Z"/><polygon class="cls-2" points="94.76 161.89 67.79 201.29 67.69 201.29 94.76 161.89"/><polygon class="cls-2" points="118.1 52.5 90.19 93.11 73.89 116.82 90.16 93.11 118.03 52.5 118.1 52.5"/><polygon class="cls-2" points="93.34 52.5 68.12 87.61 64.17 93.11 32.03 93.11 32.03 52.5 93.34 52.5"/><polygon class="cls-2" points="158.62 52.5 158.62 68.6 141.84 93.11 95.59 160.69 95.58 160.69 94.76 161.89 67.69 201.29 32.03 201.29 32.03 177.82 43.78 160.69 73.89 116.82 90.19 93.11 118.1 52.5 158.62 52.5"/><path class="cls-2" d="M158.62,160.69v40.6s-43.22-.35-66-.51l24.74-34.84,3.73-5.25Z"/><rect class="cls-2" x="176.81" y="52.5" width="40.61" height="148.79"/><path class="cls-2" d="M288.87,149.36c-1.78,1-3.62,1.82-3.62,1.82a49.65,49.65,0,0,1-6.78,2.49l35.72,47.62H263.4l-25.29-33.48v-54.4h25.38a10.19,10.19,0,0,0,10.09-8.79,9.14,9.14,0,0,0,.1-1.4v-.09a9.14,9.14,0,0,0-.1-1.4,10.2,10.2,0,0,0-10.09-8.79H238.11V52.5l28.58.09a51.29,51.29,0,0,1,25.17,8c16.83,10.86,21.19,28.23,22.07,32.15a52.68,52.68,0,0,1,.17,21.8,50.91,50.91,0,0,1-9.53,21.33A57.45,57.45,0,0,1,288.87,149.36Z"/><path class="cls-2" d="M273.58,101.73a9.14,9.14,0,0,1,.1,1.4v.09a9.14,9.14,0,0,1-.1,1.4Z"/></g></g></svg>